<?xml version="1.0" encoding="UTF-8" standalone="no"?>
<svg
   xmlns:dc="http://purl.org/dc/elements/1.1/"
   xmlns:cc="http://creativecommons.org/ns#"
   xmlns:rdf="http://www.w3.org/1999/02/22-rdf-syntax-ns#"
   xmlns:svg="http://www.w3.org/2000/svg"
   xmlns="http://www.w3.org/2000/svg"
   xmlns:sodipodi="http://sodipodi.sourceforge.net/DTD/sodipodi-0.dtd"
   xmlns:inkscape="http://www.inkscape.org/namespaces/inkscape"
   sodipodi:docname="GFLogoColor.svg"
   inkscape:version="1.0 (4035a4fb49, 2020-05-01)"
   inkscape:export-ydpi="300.20001"
   inkscape:export-xdpi="300.20001"
   inkscape:export-filename="C:\Users\take\Desktop\GFLOGO.png"
   id="svg11667"
   version="1.1"
   viewBox="0 0 77.1343 12.443467"
   height="12.443467mm"
   width="77.1343mm">
  <defs
     id="defs11661" />
  <sodipodi:namedview
     inkscape:window-maximized="1"
     inkscape:window-y="-8"
     inkscape:window-x="-8"
     inkscape:window-height="1137"
     inkscape:window-width="1920"
     fit-margin-bottom="0"
     fit-margin-right="0"
     fit-margin-left="0"
     fit-margin-top="0"
     showgrid="false"
     inkscape:document-rotation="0"
     inkscape:current-layer="layer1"
     inkscape:document-units="mm"
     inkscape:cy="39.186823"
     inkscape:cx="148.41172"
     inkscape:zoom="2.8"
     inkscape:pageshadow="2"
     inkscape:pageopacity="0.0"
     borderopacity="1.0"
     bordercolor="#666666"
     pagecolor="#ffffff"
     id="base" />
  <metadata
     id="metadata11664">
    <rdf:RDF>
      <cc:Work
         rdf:about="">
        <dc:format>image/svg+xml</dc:format>
        <dc:type
           rdf:resource="http://purl.org/dc/dcmitype/StillImage" />
        <dc:title></dc:title>
      </cc:Work>
    </rdf:RDF>
  </metadata>
  <g
     transform="translate(-56.682849,-95.013674)"
     id="layer1"
     inkscape:groupmode="layer"
     inkscape:label="レイヤー 1">
    <path
       inkscape:connector-curvature="0"
       style="fill:#e60011;fill-opacity:1;fill-rule:nonzero;stroke:none;stroke-width:0.352777"
       d="m 62.554659,96.383444 c -3.24114,0 -5.87181,1.5875 -5.87181,3.54156 0,1.955426 2.62929,3.541556 5.87044,3.541556 3.24252,0 5.87047,-1.58613 5.87047,-3.541556 0,-2.08773 -2.4667,-3.54018 -5.87047,-3.54018 v 0.71795 c 2.77124,0 4.72669,1.13 4.72669,2.82223 0,1.558556 -2.11667,2.822216 -4.72669,2.822216 -2.61,0 -4.72529,-1.26366 -4.72529,-2.822216 0,-1.55719 2.11529,-2.82223 4.72529,-2.82223 z m 0,0"
       id="path7596" />
    <path
       inkscape:connector-curvature="0"
       style="fill:#009942;fill-opacity:1;fill-rule:nonzero;stroke:none;stroke-width:0.352777"
       d="m 64.519779,103.26674 c -0.43135,1.87827 -1.70053,4.44555 -3.9908,4.16994 v -1.09967 c 0,0 1.17683,-0.0634 1.86721,-0.66008 1.17825,-1.01837 1.42766,-2.29581 1.42766,-2.29581 0,0 0.45339,-0.0634 0.69593,-0.11576 z m 0,0"
       id="path7598" />
    <path
       inkscape:connector-curvature="0"
       style="fill:#009942;fill-opacity:1;fill-rule:nonzero;stroke:none;stroke-width:0.352777"
       d="m 67.409519,95.013674 c 0,0 -2.2159,0.45475 -2.81122,2.95313 0,0 -0.0978,0.40377 -0.15296,0.79375 -0.0771,0.53469 -0.15847,1.259526 -0.16672,1.311896 -0.11025,0.87643 -0.24391,2.24069 -0.32385,2.54661 0,0 0.18602,-0.0358 0.36103,-0.0744 0.15159,-0.0358 0.35969,-0.10198 0.35969,-0.10198 0.0661,-0.31832 0.33348,-2.509396 0.33348,-2.509396 0.0289,-0.30731 0.22737,-1.47313 0.22737,-1.47313 0.57876,-2.41432 2.17318,-2.33302 2.17318,-2.33302 z m 0,0"
       id="path7600" />
    <path
       inkscape:connector-curvature="0"
       style="fill:#009942;fill-opacity:1;fill-rule:nonzero;stroke:none;stroke-width:0.352777"
       d="m 79.379129,104.95484 c -0.46302,0.13091 -0.90258,0.19706 -1.305,0.19706 -1.05695,0 -1.88651,-0.33762 -2.46531,-1.00322 -0.58565,-0.67386 -0.88195,-1.63573 -0.88195,-2.86218 0,-1.24161 0.27838,-2.211746 0.82547,-2.885606 0.54433,-0.66973 1.29536,-0.99633 2.29305,-0.99633 0.68351,0 1.69362,0.23152 3.00136,0.68765 l 0.23428,0.0827 v -1.66191 l -0.12954,-0.0358 c -1.07625,-0.297661 -2.11941,-0.44787 -3.09784,-0.44787 -1.55441,0 -2.78226,0.4644 -3.64765,1.38355 -0.86128,0.91502 -1.2995,2.21589 -1.2995,3.865396 0,1.6757 0.43131,2.98345 1.28157,3.88745 0.85715,0.90537 2.09187,1.36563 3.67112,1.36563 0.88194,0 1.93061,-0.17225 3.1171,-0.51125 l 0.12817,-0.0372 v -4.21955 h -1.72533 z m 0,0"
       id="path7602" />
    <path
       inkscape:connector-curvature="0"
       style="fill:#009942;fill-opacity:1;fill-rule:nonzero;stroke:none;stroke-width:0.352777"
       d="m 84.90508,97.637454 h 0.691758 c 1.349132,0 2.005053,0.43546 2.005053,1.33119 0,0.61323 -0.195662,1.062456 -0.596691,1.373896 -0.406511,0.31833 -1.023872,0.48094 -1.831412,0.48094 H 84.90508 Z m 3.905351,2.943486 c 0.358277,-0.50436 0.540207,-1.091396 0.540207,-1.743216 0,-0.83371 -0.271499,-1.48001 -0.80754,-1.92236 -0.527788,-0.43546 -1.285698,-0.65594 -2.25171,-0.65594 h -3.112989 v 10.037626 h 1.726681 v -4.09691 h 1.03215 l 2.73953,4.09691 h 2.118048 l -3.2825,-4.63848 c 0.547092,-0.26458 0.98394,-0.62563 1.298123,-1.07763"
       id="path7604" />
    <path
       inkscape:connector-curvature="0"
       style="fill:#009942;fill-opacity:1;fill-rule:nonzero;stroke:none;stroke-width:0.352777"
       d="m 93.38278,101.77984 h 3.391328 v -1.37666 H 93.38278 v -2.765726 h 4.047278 v -1.37803 H 91.65608 v 10.037626 h 6.055109 v -1.37804 H 93.38278 Z m 0,0"
       id="path7606" />
    <path
       inkscape:connector-curvature="0"
       style="fill:#009942;fill-opacity:1;fill-rule:nonzero;stroke:none;stroke-width:0.352777"
       d="m 100.65054,101.77984 h 3.39135 v -1.37666 h -3.39135 v -2.765726 h 4.04869 v -1.37803 h -5.775371 v 10.037626 h 6.055121 v -1.37804 h -4.32844 z m 0,0"
       id="path7608" />
    <path
       inkscape:connector-curvature="0"
       style="fill:#009942;fill-opacity:1;fill-rule:nonzero;stroke:none;stroke-width:0.352777"
       d="m 112.40657,103.26812 -4.59574,-7.008696 h -1.62059 v 10.037626 h 1.53928 v -7.005946 l 4.60403,7.005946 h 1.6123 V 96.259424 h -1.53928 z m 0,0"
       id="path7610" />
    <path
       inkscape:connector-curvature="0"
       style="fill:#009942;fill-opacity:1;fill-rule:nonzero;stroke:none;stroke-width:0.352777"
       d="m 115.47133,106.29705 h 1.72671 v -4.37665 h 3.40099 v -1.37666 h -3.40099 v -2.906286 h 4.0514 v -1.37803 h -5.77811 z m 0,0"
       id="path7612" />
    <path
       inkscape:connector-curvature="0"
       style="fill:#009942;fill-opacity:1;fill-rule:nonzero;stroke:none;stroke-width:0.352777"
       d="m 122.63713,106.29705 h 1.72533 V 96.259424 h -1.72533 z m 0,0"
       id="path7614" />
    <path
       inkscape:connector-curvature="0"
       style="fill:#009942;fill-opacity:1;fill-rule:nonzero;stroke:none;stroke-width:0.352777"
       d="m 130.53332,101.11425 3.22185,-4.854826 h -1.71704 l -2.3537,3.50435 -2.24208,-3.50435 h -2.04223 l 3.16946,4.999516 -3.33897,5.03811 h 1.7253 l 2.45152,-3.69039 2.36611,3.69039 h 2.04361 z m 0,0"
       id="path7616" />
  </g>
</svg>
